<svg xmlns="http://www.w3.org/2000/svg" version="1.1" xmlns:xlink="http://www.w3.org/1999/xlink" width="100px" height="100px"><svg xmlns="http://www.w3.org/2000/svg" xmlns:xlink="http://www.w3.org/1999/xlink" width="100px" height="100px" viewBox="0 0 100 100" version="1.1">
<g id="SvgjsG1005">
<path style=" stroke:none;fill-rule:nonzero;fill:rgb(0%,0%,0%);fill-opacity:1;" d="M 15 26.816406 C 14.316406 27.953125 12.726562 35.910156 11.363281 44.546875 C 10 53.183594 8.410156 63.183594 7.726562 66.589844 C 6.363281 72.5 6.816406 72.953125 12.953125 72.273438 C 18.863281 71.589844 19.316406 70.910156 21.363281 56.816406 L 23.410156 42.046875 L 30.226562 57.273438 C 36.363281 70.910156 37.726562 72.726562 43.410156 72.726562 C 50.226562 72.726562 50.226562 72.726562 54.546875 45.453125 C 57.726562 25.226562 57.5 25 51.136719 25 C 46.589844 25 45.453125 26.363281 44.316406 33.410156 C 40.910156 54.546875 41.136719 54.546875 34.089844 39.089844 C 28.636719 27.273438 26.589844 25 21.816406 25 C 18.636719 25 15.683594 25.910156 15 26.816406 Z M 15 26.816406 "></path>
<path style=" stroke:none;fill-rule:nonzero;fill:rgb(0%,0%,0%);fill-opacity:1;" d="M 58.183594 52.5 C 56.136719 67.046875 60.226562 72.726562 72.726562 72.726562 C 83.410156 72.726562 87.726562 67.953125 90.453125 52.726562 C 92.5 41.136719 92.5 40.910156 87.273438 40.910156 C 82.726562 40.910156 81.589844 42.273438 80.453125 50.226562 C 77.5 68.863281 66.816406 70.683594 69.316406 52.046875 C 70.910156 41.363281 70.683594 40.910156 65.226562 40.910156 C 60.226562 40.910156 59.546875 42.046875 58.183594 52.5 Z M 58.183594 52.5 "></path>
</g>
</svg><style>@media (prefers-color-scheme: light) { :root { filter: none; } }
@media (prefers-color-scheme: dark) { :root { filter: none; } }
</style></svg>